<svg xmlns="http://www.w3.org/2000/svg" version="1.1" xmlns:xlink="http://www.w3.org/1999/xlink" xmlns:svgjs="http://svgjs.dev/svgjs" width="2000" height="308" viewBox="0 0 2000 308"><g transform="matrix(1,0,0,1,-1.2121212121212466,-0.9942627402481321)"><svg viewBox="0 0 396 61" data-background-color="#ffffff" preserveAspectRatio="xMidYMid meet" height="308" width="2000" xmlns="http://www.w3.org/2000/svg" xmlns:xlink="http://www.w3.org/1999/xlink"><g id="tight-bounds" transform="matrix(1,0,0,1,0.2400000000000091,0.19691567258161058)"><svg viewBox="0 0 395.52 60.60616865483677" height="60.60616865483677" width="395.52"><g><svg viewBox="0 0 485.3915875744358 74.37733722738479" height="60.60616865483677" width="395.52"><g transform="matrix(1,0,0,1,89.8715875744358,4.372434970604971)"><svg viewBox="0 0 395.52 65.63246728617484" height="65.63246728617484" width="395.52"><g id="textblocktransform"><svg viewBox="0 0 395.52 65.63246728617484" height="65.63246728617484" width="395.52" id="textblock"><g><svg viewBox="0 0 395.52 65.63246728617484" height="65.63246728617484" width="395.52"><g transform="matrix(1,0,0,1,0,0)"><svg width="395.52" viewBox="1.9 -43.35 263.62 43.75" height="65.63246728617484" data-palette-color="#0074d9"><path d="M1.9 0L1.9-42.95 13.25-42.95Q18.4-42.95 20.6-39.63 22.8-36.3 22.8-29.9L22.8-29.9Q22.8-23.5 20.85-20.25 18.9-17 13.85-17L13.85-17 10.35-17 10.35 0 1.9 0ZM10.35-24.75L10.85-24.75Q12.4-24.75 13.13-25.33 13.85-25.9 14.08-26.98 14.3-28.05 14.3-30.05L14.3-30.05Q14.3-32.75 13.7-33.95 13.1-35.15 11.3-35.15L11.3-35.15 10.35-35.15 10.35-24.75ZM25.5 0L25.5-42.95 38.7-42.95Q41.85-42.95 43.57-41.53 45.3-40.1 45.9-37.52 46.5-34.95 46.5-30.95L46.5-30.95Q46.5-27.3 45.55-25.25 44.6-23.2 42.25-22.4L42.25-22.4Q44.2-22 45.07-20.45 45.95-18.9 45.95-16.25L45.95-16.25 45.85 0 37.45 0 37.45-16.8Q37.45-18.6 36.75-19.1 36.05-19.6 34.2-19.6L34.2-19.6 34.2 0 25.5 0ZM34.25-27.05L36.3-27.05Q38.1-27.05 38.1-30.95L38.1-30.95Q38.1-32.65 37.95-33.5 37.8-34.35 37.4-34.68 37-35 36.25-35L36.25-35 34.25-35 34.25-27.05ZM59.6 0.4Q54.4 0.4 51.7-2.78 49-5.95 49-11.7L49-11.7 49-32.15Q49-37.7 51.7-40.53 54.4-43.35 59.6-43.35L59.6-43.35Q64.8-43.35 67.5-40.53 70.2-37.7 70.2-32.15L70.2-32.15 70.2-11.7Q70.2-5.9 67.5-2.75 64.8 0.4 59.6 0.4L59.6 0.4ZM59.6-7.5Q60.75-7.5 61.15-8.5 61.55-9.5 61.55-11.3L61.55-11.3 61.55-32.3Q61.55-33.7 61.17-34.58 60.8-35.45 59.65-35.45L59.65-35.45Q57.5-35.45 57.5-32.2L57.5-32.2 57.5-11.25Q57.5-9.4 57.95-8.45 58.4-7.5 59.6-7.5L59.6-7.5ZM83.19 0.4Q80.24 0.4 77.84-0.75 75.44-1.9 74.07-4.13 72.69-6.35 72.69-9.5L72.69-9.5 72.69-20.25 81.14-20.25 81.14-10Q81.14-8.85 81.62-8.18 82.09-7.5 83.09-7.5L83.09-7.5Q84.04-7.5 84.52-8.13 84.99-8.75 84.99-9.9L84.99-9.9 84.99-42.95 93.64-42.95 93.64-10.75Q93.64-7.4 92.32-4.88 90.99-2.35 88.62-0.98 86.24 0.4 83.19 0.4L83.19 0.4ZM114.69 0L96.94 0 96.94-42.95 114.14-42.95 114.14-34.65 105.69-34.65 105.69-26.3 113.79-26.3 113.79-18.2 105.69-18.2 105.69-8.35 114.69-8.35 114.69 0ZM127.54 0.4Q122.84 0.4 120.01-2.55 117.19-5.5 117.19-10.65L117.19-10.65 117.19-30.45Q117.19-36.85 119.74-40.1 122.29-43.35 127.74-43.35L127.74-43.35Q132.49-43.35 135.39-40.75 138.29-38.15 138.29-33.25L138.29-33.25 138.29-25.85 129.74-25.85 129.74-32.2Q129.74-34.05 129.29-34.75 128.84-35.45 127.74-35.45L127.74-35.45Q126.59-35.45 126.16-34.65 125.74-33.85 125.74-32.3L125.74-32.3 125.74-10.75Q125.74-9.05 126.24-8.28 126.74-7.5 127.74-7.5L127.74-7.5Q129.74-7.5 129.74-10.75L129.74-10.75 129.74-18.5 138.39-18.5 138.39-10.4Q138.39 0.4 127.54 0.4L127.54 0.4ZM153.54 0L144.94 0 144.94-34.7 139.84-34.7 139.84-42.95 158.64-42.95 158.64-34.7 153.54-34.7 153.54 0ZM171.23 0.4Q165.38 0.4 162.78-2.5 160.18-5.4 160.18-11.85L160.18-11.85 160.18-16.05 168.63-16.05 168.63-10.7Q168.63-7.5 170.68-7.5L170.68-7.5Q171.83-7.5 172.28-8.18 172.73-8.85 172.73-10.45L172.73-10.45Q172.73-12.55 172.23-13.93 171.73-15.3 170.96-16.23 170.18-17.15 168.18-19.1L168.18-19.1 164.48-22.8Q160.18-27 160.18-32.1L160.18-32.1Q160.18-37.6 162.71-40.48 165.23-43.35 170.08-43.35L170.08-43.35Q175.88-43.35 178.43-40.28 180.98-37.2 180.98-30.65L180.98-30.65 172.23-30.65 172.18-33.6Q172.18-34.45 171.71-34.95 171.23-35.45 170.38-35.45L170.38-35.45Q169.38-35.45 168.88-34.9 168.38-34.35 168.38-33.4L168.38-33.4Q168.38-31.3 170.78-29.05L170.78-29.05 175.78-24.25Q177.53-22.55 178.68-21.03 179.83-19.5 180.53-17.43 181.23-15.35 181.23-12.5L181.23-12.5Q181.23-6.15 178.91-2.88 176.58 0.4 171.23 0.4L171.23 0.4ZM204.33 0L195.78 0 195.78-42.95 204.33-42.95 204.33-27.6 208.38-27.6 208.38-42.95 216.93-42.95 216.93 0 208.38 0 208.38-19.5 204.33-19.5 204.33 0ZM230.68 0.4Q225.38 0.4 222.8-2.6 220.23-5.6 220.23-11.5L220.23-11.5 220.23-42.95 228.58-42.95 228.58-11.85Q228.58-9.8 228.98-8.65 229.38-7.5 230.68-7.5L230.68-7.5Q231.98-7.5 232.38-8.63 232.78-9.75 232.78-11.85L232.78-11.85 232.78-42.95 241.13-42.95 241.13-11.5Q241.13-5.6 238.55-2.6 235.98 0.4 230.68 0.4L230.68 0.4ZM244.42 0L244.42-42.95 256.07-42.95Q260.77-42.95 262.9-40.65 265.02-38.35 265.02-33.15L265.02-33.15 265.02-31.25Q265.02-25.1 260.62-23.9L260.62-23.9Q263.32-23.2 264.42-20.65 265.52-18.1 265.52-13.9L265.52-13.9Q265.52-7.05 263.47-3.53 261.42 0 256.07 0L256.07 0 244.42 0ZM252.82-26.8L254.57-26.8Q255.67-26.8 256.07-27.63 256.47-28.45 256.47-29.95L256.47-29.95 256.47-34.25Q256.47-36.35 254.62-36.35L254.62-36.35 252.82-36.35 252.82-26.8ZM253.67-7.55Q257.02-7.55 257.02-10.75L257.02-10.75 257.02-16.1Q257.02-18.05 256.45-19.05 255.87-20.05 254.42-20.05L254.42-20.05 252.82-20.05 252.82-7.6 253.67-7.55Z" opacity="1" transform="matrix(1,0,0,1,0,0)" fill="#2563eb" class="wordmark-text-0" data-fill-palette-color="primary" id="text-0"></path></svg></g></svg></g></svg></g></svg></g><g><svg viewBox="0 0 74.37733722738479 74.37733722738479" height="74.37733722738479" width="74.37733722738479"><g><svg xmlns="http://www.w3.org/2000/svg" xmlns:xlink="http://www.w3.org/1999/xlink" version="1.0" x="0" y="0" viewBox="20 20 60 60" enable-background="new 0 0 100 100" xml:space="preserve" height="74.37733722738479" width="74.37733722738479" class="icon-icon-0" data-fill-palette-color="accent" id="icon-0"><path d="M20 26.667A6.67 6.67 0 0 1 26.667 33.334V63.334C26.667 72.539 34.128 80 43.333 80S60 72.539 60 63.334V40A3.33 3.33 0 0 1 63.333 36.667 3.33 3.33 0 0 1 66.667 40V56.666C66.667 64.023 72.637 70 80 70V63.334A6.67 6.67 0 0 1 73.333 56.666V40C73.333 34.476 68.854 30 63.333 30S53.333 34.476 53.333 40V63.334C53.333 68.857 48.854 73.334 43.333 73.334S33.333 68.857 33.333 63.334V33.334C33.333 25.973 27.363 20 20 20z" fill="#0074d9" data-fill-palette-color="accent"></path></svg></g></svg></g></svg></g><defs></defs></svg><rect width="395.52" height="60.60616865483677" fill="none" stroke="none" visibility="hidden"></rect></g></svg></g></svg>